<svg width="128" height="128" viewBox="0 0 128 128" fill="none" xmlns="http://www.w3.org/2000/svg">
<path d="M100.235 28.035C95.5428 23.293 89.9607 19.5238 83.8088 16.9438C77.6568 14.3637 71.056 13.0235 64.385 13H64C50.474 13 37.5019 18.3732 27.9376 27.9376C18.3732 37.5019 13 50.474 13 64V92C13 94.9174 14.1589 97.7153 16.2218 99.7782C18.2847 101.841 21.0826 103 24 103H32C34.9174 103 37.7153 101.841 39.7782 99.7782C41.8411 97.7153 43 94.9174 43 92V72C43 69.0826 41.8411 66.2847 39.7782 64.2218C37.7153 62.1589 34.9174 61 32 61H19.1C19.861 49.61 24.9224 38.9348 33.2591 31.1366C41.5957 23.3384 52.5846 19 64 19H64.34C75.7076 19.0505 86.6321 23.4152 94.9049 31.2118C103.178 39.0084 108.182 49.6553 108.905 61H96C93.0826 61 90.2847 62.1589 88.2218 64.2218C86.1589 66.2847 85 69.0826 85 72V92C85 94.9174 86.1589 97.7153 88.2218 99.7782C90.2847 101.841 93.0826 103 96 103H109V104C109 107.448 107.63 110.754 105.192 113.192C102.754 115.63 99.4478 117 96 117H68C67.2044 117 66.4413 117.316 65.8787 117.879C65.3161 118.441 65 119.204 65 120C65 120.796 65.3161 121.559 65.8787 122.121C66.4413 122.684 67.2044 123 68 123H96C101.039 123 105.872 120.998 109.435 117.435C112.998 113.872 115 109.039 115 104V64C115.025 57.3288 113.734 50.7181 111.2 44.5466C108.667 38.3752 104.94 32.7642 100.235 28.035ZM32 67C33.3261 67 34.5979 67.5268 35.5355 68.4645C36.4732 69.4021 37 70.6739 37 72V92C37 93.3261 36.4732 94.5979 35.5355 95.5355C34.5979 96.4732 33.3261 97 32 97H24C22.6739 97 21.4021 96.4732 20.4645 95.5355C19.5268 94.5979 19 93.3261 19 92V67H32ZM91 92V72C91 70.6739 91.5268 69.4021 92.4645 68.4645C93.4021 67.5268 94.6739 67 96 67H109V97H96C94.6739 97 93.4021 96.4732 92.4645 95.5355C91.5268 94.5979 91 93.3261 91 92Z" fill="#4B8451"/>
</svg>
