<svg width="128" height="128" viewBox="0 0 128 128" fill="none" xmlns="http://www.w3.org/2000/svg">
<path d="M64 13C53.9132 13 44.0528 15.9911 35.6659 21.595C27.279 27.199 20.7422 35.1641 16.8822 44.4831C13.0221 53.8022 12.0121 64.0566 13.98 73.9496C15.9478 83.8426 20.8051 92.93 27.9376 100.062C35.0701 107.195 44.1574 112.052 54.0504 114.02C63.9434 115.988 74.1978 114.978 83.5169 111.118C92.8359 107.258 100.801 100.721 106.405 92.3341C112.009 83.9472 115 74.0868 115 64C114.984 50.4788 109.606 37.516 100.045 27.9551C90.484 18.3942 77.5212 13.0159 64 13ZM35.72 99C38.654 94.1213 42.8001 90.0846 47.7556 87.2822C52.711 84.4799 58.3071 83.0071 64 83.0071C69.693 83.0071 75.2891 84.4799 80.2445 87.2822C85.1999 90.0846 89.3461 94.1213 92.28 99C84.2818 105.486 74.2974 109.025 64 109.025C53.7027 109.025 43.7182 105.486 35.72 99ZM47 60C47 56.6377 47.9971 53.3509 49.865 50.5553C51.733 47.7597 54.3881 45.5807 57.4944 44.294C60.6007 43.0074 64.0189 42.6707 67.3166 43.3266C70.6142 43.9826 73.6433 45.6017 76.0208 47.9792C78.3983 50.3567 80.0174 53.3858 80.6734 56.6835C81.3293 59.9811 80.9927 63.3993 79.706 66.5056C78.4193 69.612 76.2404 72.267 73.4447 74.135C70.6491 76.003 67.3623 77 64 77C59.4913 77 55.1673 75.2089 51.9792 72.0208C48.7911 68.8327 47 64.5087 47 60ZM96.755 94.82C92.0414 87.4907 84.9957 81.9634 76.755 79.13C80.8642 76.3931 83.9836 72.4065 85.652 67.7598C87.3204 63.113 87.4493 58.0527 86.0195 53.3271C84.5898 48.6014 81.6774 44.4612 77.7129 41.5187C73.7484 38.5762 68.9422 36.9874 64.005 36.9874C59.0678 36.9874 54.2617 38.5762 50.2972 41.5187C46.3326 44.4612 43.4202 48.6014 41.9905 53.3271C40.5608 58.0527 40.6896 63.113 42.3581 67.7598C44.0265 72.4065 47.1459 76.3931 51.255 79.13C43.0143 81.9634 35.9687 87.4907 31.255 94.82C25.2292 88.4254 21.2072 80.4066 19.6852 71.753C18.1633 63.0994 19.208 54.1895 22.6905 46.1227C26.1731 38.0558 31.941 31.185 39.2827 26.3578C46.6243 21.5307 55.2186 18.9584 64.005 18.9584C72.7915 18.9584 81.3857 21.5307 88.7274 26.3578C96.0691 31.185 101.837 38.0558 105.319 46.1227C108.802 54.1895 109.847 63.0994 108.325 71.753C106.803 80.4066 102.781 88.4254 96.755 94.82Z" fill="#4B8451"/>
</svg>
